<mxfile host="app.diagrams.net" modified="2024-05-04T08:33:21.042Z" agent="Mozilla/5.0 (Windows NT 10.0; Win64; x64) AppleWebKit/537.36 (KHTML, like Gecko) Chrome/124.0.0.0 Safari/537.36" version="24.2.1" etag="_81YwCsND7FRuXAWvxNM" type="github">
  <diagram name="Page-1" id="S35oyvxYCTcrf-Jl6dqN">
    <mxGraphModel>
      <root>
        <mxCell id="0" />
        <mxCell id="1" parent="0" />
      </root>
    </mxGraphModel>
  </diagram>
</mxfile>
